# xmcd CD database file
#
# Track frame offsets:
#	150
#	39401
#	63208
#	118028
#	151587
#	190467
#	218427
#	247605
#	258336
#	274400
#	306590
#
# Disc length: 4455 seconds
#
# Revision: 0
# Processed by: cddbd v1.5.2PL0 Copyright (c) Steve Scherf et al.
# Submitted via: CDex 1.51
#
DISCID=9111650b
DTITLE=Gerald Gradwohl - Big Land
DYEAR=2012
DGENRE=Jazz
TTITLE0=Squier '78
TTITLE1=As It Is
TTITLE2=The Light Inside
TTITLE3=Down The Coast
TTITLE4=Yes Or No
TTITLE5=FF9612
TTITLE6=I Remember Berg
TTITLE7=Pig Dog Bear
TTITLE8=R.U.O.K ?
TTITLE9=The Big Land
TTITLE10=Wenn der Herrgot net will
EXTD=YEAR: 2012
EXTT0=
EXTT1=
EXTT2=
EXTT3=
EXTT4=
EXTT5=
EXTT6=
EXTT7=
EXTT8=
EXTT9=
EXTT10=
PLAYORDER=
